<svg xmlns="http://www.w3.org/2000/svg" width="1280" height="720" viewBox="0 0 1280 720" data-pptx-page-role="content" font-family="Microsoft YaHei, Arial, sans-serif">
  <rect id="background" data-pptx-role="background" x="0" y="0" width="1280" height="720" fill="#FFFFFF"/>
  <g id="title-block" data-pptx-bounds="52 32 1170 100">
    <text x="58" y="62" font-family="Arial, Microsoft YaHei, sans-serif" font-size="16" font-weight="bold" letter-spacing="1.3" fill="#F28C28">03 / MEMORY + SKILL BENCHMARK</text>
    <text x="58" y="112" font-size="40" font-weight="bold" fill="#1E2A36">会话、长期事实和程序性经验必须分治</text>
  </g>
  <g id="memory-product-comparison" data-pptx-bounds="58 154 1164 144">
    <rect x="58" y="154" width="220" height="144" fill="#F3F7FB"/>
    <rect x="288" y="154" width="220" height="144" fill="#F3F7FB"/>
    <rect x="518" y="154" width="220" height="144" fill="#F3F7FB"/>
    <rect x="748" y="154" width="220" height="144" fill="#F3F7FB"/>
    <rect x="978" y="154" width="244" height="144" fill="#FFF7EE" stroke="#F28C28" stroke-width="3"/>
    <text x="78" y="188" font-size="18" font-weight="bold" fill="#0B5CAD">OpenAI Sessions</text>
    <text x="78" y="224" font-size="15" fill="#1E2A36">会话历史持久化</text>
    <text x="78" y="252" font-size="14" fill="#516273">面向一段运行会话</text>
    <text x="308" y="188" font-size="18" font-weight="bold" fill="#0B5CAD">LangGraph</text>
    <text x="308" y="224" font-size="15" fill="#1E2A36">Checkpointer + Store</text>
    <text x="308" y="252" font-size="14" fill="#516273">线程状态 / 跨线程存储</text>
    <text x="538" y="188" font-size="18" font-weight="bold" fill="#0B5CAD">Mem0</text>
    <text x="538" y="224" font-size="15" fill="#1E2A36">动态抽取、整合、检索</text>
    <text x="538" y="252" font-size="14" fill="#516273">记忆层产品化</text>
    <text x="768" y="188" font-size="18" font-weight="bold" fill="#0B5CAD">Voyager</text>
    <text x="768" y="224" font-size="15" fill="#1E2A36">可执行 Skill Library</text>
    <text x="768" y="252" font-size="14" fill="#516273">经验沉淀为程序</text>
    <text x="998" y="188" font-size="18" font-weight="bold" fill="#F28C28">SuperAgent</text>
    <text x="998" y="224" font-size="15" font-weight="bold" fill="#1E2A36">三通道分治 + 治理门禁</text>
    <text x="998" y="252" font-size="14" fill="#7A5A38">先进性在系统组合</text>
  </g>
  <g id="three-governed-channels" data-pptx-bounds="58 334 1164 266">
    <rect x="58" y="334" width="366" height="248" fill="#EAF4FB"/>
    <rect x="448" y="334" width="366" height="248" fill="#EFF8FB"/>
    <rect x="838" y="334" width="384" height="248" fill="#FFF7EE"/>
    <rect x="58" y="334" width="366" height="8" fill="#0B5CAD"/>
    <rect x="448" y="334" width="366" height="8" fill="#4CA6C6"/>
    <rect x="838" y="334" width="384" height="8" fill="#F28C28"/>
    <text x="82" y="382" font-size="22" font-weight="bold" fill="#0B5CAD">① 上下文压缩</text>
    <text x="82" y="420" font-size="16" fill="#1E2A36">写入：窗口超限前</text>
    <text x="82" y="452" font-size="16" fill="#1E2A36">保留：最近两轮 + 未完成计划</text>
    <text x="82" y="484" font-size="16" fill="#1E2A36">召回：当前会话</text>
    <text x="82" y="532" font-size="15" font-weight="bold" fill="#516273">Plan / TaskGraph / Artifact 不丢失</text>
    <text x="472" y="382" font-size="22" font-weight="bold" fill="#0B5CAD">② 长期 Memory</text>
    <text x="472" y="420" font-size="16" fill="#1E2A36">写入：固定办公标签</text>
    <text x="472" y="452" font-size="16" fill="#1E2A36">记录：来源 / 范围 / 冲突 / 衰减</text>
    <text x="472" y="484" font-size="16" fill="#1E2A36">召回：只注入主 Agent</text>
    <text x="472" y="532" font-size="15" font-weight="bold" fill="#516273">用户 / 项目隔离，不直达远端 Agent</text>
    <text x="862" y="382" font-size="22" font-weight="bold" fill="#F28C28">③ Step / Agent Skill</text>
    <text x="862" y="420" font-size="16" fill="#1E2A36">写入：LLM 反思 + 两次独立成功</text>
    <text x="862" y="452" font-size="16" fill="#1E2A36">门禁：Agent / Tool / Schema / 范围</text>
    <text x="862" y="484" font-size="16" fill="#1E2A36">召回：只增强对应 Plan 步骤</text>
    <text x="862" y="532" font-size="15" font-weight="bold" fill="#7A5A38">不跳过 Planner；高风险副作用单独拦截</text>
    <circle cx="436" cy="458" r="16" fill="#FFFFFF" stroke="#D95C5C" stroke-width="3"/>
    <line x1="425" y1="447" x2="447" y2="469" stroke="#D95C5C" stroke-width="3"/>
    <circle cx="826" cy="458" r="16" fill="#FFFFFF" stroke="#D95C5C" stroke-width="3"/>
    <line x1="815" y1="447" x2="837" y2="469" stroke="#D95C5C" stroke-width="3"/>
  </g>
  <g id="honest-positioning" data-pptx-bounds="58 606 1100 42">
    <text x="58" y="634" font-size="18" font-weight="bold" fill="#F28C28">不宣称单项记忆算法 SOTA；价值在生命周期、范围与复用门禁的系统组合。</text>
  </g>
  <g id="footer" data-pptx-bounds="58 650 1164 42">
    <text x="58" y="677" font-size="14" fill="#7B8B9B">来源：OpenAI Sessions · LangGraph Memory · Mem0 · Voyager 官方资料</text>
    <circle cx="1194" cy="670" r="22" fill="#F28C28"/>
    <text x="1194" y="676" text-anchor="middle" font-family="Arial, Microsoft YaHei, sans-serif" font-size="16" font-weight="bold" fill="#FFFFFF">12</text>
  </g>
</svg>
